<?xml version="1.0" encoding="utf-8"?>
<!-- Generator: Adobe Illustrator 23.0.1, SVG Export Plug-In . SVG Version: 6.00 Build 0)  -->
<svg version="1.1" id="Layer_1" xmlns="http://www.w3.org/2000/svg" xmlns:xlink="http://www.w3.org/1999/xlink" x="0px" y="0px"
	 viewBox="0 0 431.9 160.4" style="enable-background:new 0 0 431.9 160.4;" xml:space="preserve">
<style type="text/css">
	.st0{fill:#63351C;stroke:#823F27;stroke-width:3;stroke-miterlimit:10;}
	.st1{fill:#F4F4F4;stroke:#E2E2E2;stroke-width:2;stroke-miterlimit:10;}
	.st2{fill:none;stroke:#F4F4F4;stroke-miterlimit:10;}
	.st3{fill:#FFFFFF;stroke:#E5E5E5;stroke-miterlimit:10;}
	.st4{fill:#FFFF00;stroke:#DDD700;stroke-miterlimit:10;}
	.st5{fill:#FF7F00;stroke:#DD6900;stroke-miterlimit:10;}
	.st6{fill:#FF0000;stroke:#DB0000;stroke-miterlimit:10;}
	.st7{fill:#8E5F55;stroke:#774E47;stroke-miterlimit:10;}
	.st8{fill:#100A0C;stroke:#212121;stroke-width:2;stroke-miterlimit:10;}
</style>
<path class="st0" d="M290.2,16.5L303,17c0,0,4.9,0.9,6.5-3.8V8.4L313,6l29.5,0.3c0,0,3.7-0.3,2.1,4.4s-2.8,7.9-2.8,7.9l64.8,21.8
	l5.6-6.3c0,0,1.8-3.3,6.3-1.5s8.6,3.7,8.6,3.7l0.5,27.1l2.7,1.9l-0.3,5.2l-3.7,35.8l-0.9,1.3c-4.5,0-8.1,3.4-8.1,7.6
	c0,4.2,3.6,7.6,8.1,7.6l0.7,0.4l0.1,1.3l-0.3,4.3l-32.7,25.4l-116.8,0.8l-2,3.2h-5.2l-1.2-2l-2.7,0.1l0.1,1.4l-5.9,0.1l-1.2-1.7h-2
	l-1.9,2.2H250l-1.1-1.7l-2.6-0.1l-0.8,2.5h-5.9l-1.3-3.3l-10.5-0.3l-1-0.1v-7.8c0-4.1-3.6-7.3-8-7.3s-8,3.3-8,7.3v6.9l-1.8,0
	l-169.4-0.1L5.1,127.5v-3.8l0.6-1.8c5.1,0,9.3-3.9,9.3-8.7c0-4.8-4.2-8.7-9.3-8.7l0-0.6l0.2-6.9H1.5v-3.7l4.1-3.4v-2.6H2.8v-5.5
	l2.9-1.9l-2-1.9v-6.6l2.4-1.2l1.8-38l12.5-4.1l5.9,7.1l72.9-23.3L97.3,6l3.7-2.5h23.3c0,0,16.2,2.2,14.4,23.3l41.1,1.1l12.9-11.4
	l52,0l10.5-14.6l5.1-0.1c0,0-0.1,2.4,2.1,2.4s2.1-2.2,2.1-2.2l5.2-0.1l0.8,1.7c0.9,1.6,1.7,0,1.7,0l1.8-2h5.4l0.3,1.1
	c-0.2,3,4,3.6,4,3.6c3.7,0.6,3,4.7,3,4.7C286.7,16.2,290.2,16.5,290.2,16.5"/>
<polygon class="st1" points="142.2,142.7 148.1,142.7 148.1,131.1 151.6,131.1 152.8,132.9 155.8,132.9 156.7,131.1 158.9,131.1 
	159.5,132.9 162.9,132.9 163.7,131.1 166.3,131.1 167,132.9 169.4,132.9 170.6,131.1 172.9,131.1 173.9,132.9 176.3,132.9 
	177.7,131.1 180.8,131.1 180.9,142.9 186.5,142.9 186.5,113.4 182.4,113.5 182.4,130.4 146.4,130.4 146.4,113.4 142.2,113.4 
	142.2,131.1 "/>
<path class="st2" d="M186.5,152.6"/>
<g>
	<rect x="177.5" y="96.8" class="st3" width="3.8" height="5.8"/>
	<rect x="170" y="96.8" class="st4" width="3.8" height="5.8"/>
	<rect x="162.5" y="96.8" class="st5" width="3.8" height="5.8"/>
	<rect x="155" y="96.8" class="st6" width="3.8" height="5.8"/>
	<rect x="147.4" y="96.8" class="st7" width="3.7" height="5.8"/>
</g>
<polygon class="st8" points="146.4,113.4 146.4,130.4 182.4,130.4 182.4,113.4 186.5,113.4 186.5,102.4 142.2,102.4 142.2,113.4 "/>
</svg>
