<?xml version="1.0" encoding="utf-8"?>
<!-- Generator: Adobe Illustrator 23.0.1, SVG Export Plug-In . SVG Version: 6.00 Build 0)  -->
<svg version="1.1"
	 id="svg8" xmlns:cc="http://creativecommons.org/ns#" xmlns:dc="http://purl.org/dc/elements/1.1/" xmlns:inkscape="http://www.inkscape.org/namespaces/inkscape" xmlns:rdf="http://www.w3.org/1999/02/22-rdf-syntax-ns#" xmlns:sodipodi="http://sodipodi.sourceforge.net/DTD/sodipodi-0.dtd" xmlns:svg="http://www.w3.org/2000/svg"
	 xmlns="http://www.w3.org/2000/svg" xmlns:xlink="http://www.w3.org/1999/xlink" x="0px" y="0px" viewBox="0 0 325.77 236.87"
	 style="enable-background:new 0 0 325.77 236.87;" xml:space="preserve">
<style type="text/css">
	.st0{fill:#393A3C;}
	.st1{fill:none;stroke:#393A3C;stroke-width:10;}
	.st2{fill:#9F9FA7;}
	.st3{fill-rule:evenodd;clip-rule:evenodd;fill:#393A3C;}
	.st4{fill-rule:evenodd;clip-rule:evenodd;fill:#323234;}
	.st5{fill-rule:evenodd;clip-rule:evenodd;fill:#706D7E;}
	.st6{fill-rule:evenodd;clip-rule:evenodd;fill:#A2A3A9;}
	.st7{fill-rule:evenodd;clip-rule:evenodd;fill:#8C84B7;}
	.st8{fill-rule:evenodd;clip-rule:evenodd;fill:#321C66;}
	.st9{fill-rule:evenodd;clip-rule:evenodd;fill:#333438;}
</style>
<g id="Cord" transform="translate(0,-42.333334)" inkscape:groupmode="layer" inkscape:label="Layer 9">
	<g id="g5253" transform="matrix(0.00953695,0.05061003,-0.05060989,0.00953698,72.749478,37.688553)">
		<g id="g5219" transform="rotate(-66.340128,216.8505,216.8515)">
			<path id="path5217" inkscape:connector-curvature="0" sodipodi:nodetypes="ccccccccccccccccccccccccccccccc" class="st0" d="
				M3399.97-511.37l457.7,457.69l-235.85,235.88c-44.44,44.44-179.43,129.99-276.39,154.09c-3.35,10.71-8.93,20.89-17.45,29.4
				c-27.98,27.96-73.37,27.96-101.33,0l-3.31-3.33L3063.12,522.6l-75.34-75.32c-105.21-105.23,0,0-105.21-105.23l-77.66-77.66
				l161.41-161.42c-17.87-27.76-14.71-65.1,9.55-89.38c7.44-7.43,16.12-12.75,25.36-16.23c26.74-92.82,120.96-231.02,162.86-272.92
				L3399.97-511.37z M3834.25-149.76l-338.2-338.2l284.52-284.5l338.19,338.22L3834.25-149.76z M3880.81-450.92l68.24,68.21
				l51.16-51.17l-68.23-68.21L3880.81-450.92z M3788.54-544.85l51.17-51.17l-68.21-68.22l-51.17,51.17L3788.54-544.85z"/>
		</g>
		<g id="g5221">
		</g>
		<g id="g5223">
		</g>
		<g id="g5225">
		</g>
		<g id="g5228">
		</g>
		<g id="g5230">
		</g>
		<g id="g5232">
		</g>
		<g id="g5234">
		</g>
		<g id="g5236">
		</g>
		<g id="g5238">
		</g>
		<g id="g5240">
		</g>
		<g id="g5242">
		</g>
		<g id="g5244">
		</g>
		<g id="g5246">
		</g>
		<g id="g5248">
		</g>
		<g id="g5250">
		</g>
	</g>
	
		<path id="path5255" inkscape:connector-curvature="0" inkscape:original-d="m 41.857856,71.775234 c 0.3735,-2.786444 0.746737,-5.57276 1.119705,-8.35895 -10.00876,-0.08105 -20.018756,-0.161981 -30.028531,-0.24278 0.326757,-2.424921 0.565037,-4.849738 0.847159,-7.274417 6.967438,0.16631 13.937944,0.332828 20.906517,0.499434 3.999639,1.071414 7.999016,2.142954 11.998127,3.214624 3.281077,-1.930082 6.561889,-3.860037 9.842438,-5.789864" inkscape:path-effect="#path-effect5257" sodipodi:nodetypes="ccccccc" class="st1" d="
		M156.09,152.04c1.41-10.53,2.82-21.06-15.39-26.48s-56.04-5.72-74.42-10.47c-18.38-4.75-17.32-13.89-3.62-18.16
		c13.7-4.27,40.05-3.64,60.77-1.3c20.73,2.34,35.84,6.39,49.6,4.77c13.76-1.62,26.16-8.92,38.56-16.21"/>
</g>
<path id="Body" class="st2" d="M211.99,220.31h-98.55l0,0c-12.14,10.2-27.85,16.3-44.98,16.17C30.37,236.2-0.28,205.24,0,167.33
	s31.38-68.42,69.48-68.14l187.95,0c38.02,0.15,68.61,31.09,68.34,69.11c-0.27,38.02-31.31,68.72-69.32,68.57
	C239.45,236.8,223.93,230.57,211.99,220.31L211.99,220.31z"/>
<g id="DPad" transform="translate(0,-42.333334)" inkscape:groupmode="layer" inkscape:label="Layer 6">
	<rect x="39.91" y="198.74" class="st3" width="56.24" height="18.79"/>
	<polygon class="st4" points="92.2,208.13 81.78,202.09 81.78,214.18 	"/>
	<rect x="58.92" y="180.25" class="st3" width="18.62" height="55.76"/>
	<polygon class="st4" points="68.06,232.4 74.1,221.98 62.02,221.98 	"/>
	<polygon class="st4" points="68.11,183.42 62.07,193.84 74.15,193.84 	"/>
	<polygon class="st4" points="42.63,208.1 53.05,214.15 53.05,202.06 	"/>
</g>
<g id="RightBack" transform="translate(0,-42.333334)" inkscape:groupmode="layer" inkscape:label="Layer 5">
	
		<ellipse id="path5328" transform="matrix(7.373030e-03 -1 1 7.373030e-03 46.3914 468.2484)" class="st5" cx="259.05" cy="210.76" rx="61.25" ry="61.69"/>
	
		<ellipse id="ellipse5267" transform="matrix(7.373030e-03 -1 1 7.373030e-03 46.3914 468.2484)" class="st5" cx="259.05" cy="210.76" rx="61.25" ry="61.69"/>
</g>
<g id="LeftButtonsBack" transform="translate(0,-42.333334)" inkscape:groupmode="layer" inkscape:label="Layer 4">
	<path class="st6" d="M267.65,198.35l-30.73,23.58c-6.69,5.14-16.37,3.86-21.51-2.83l0,0c-5.14-6.69-3.86-16.37,2.83-21.51
		L248.97,174c6.69-5.14,16.37-3.86,21.51,2.83l0,0C275.62,183.53,274.35,193.21,267.65,198.35z"/>
	<path class="st6" d="M299.92,222.7l-30.73,23.58c-6.69,5.14-16.37,3.86-21.51-2.83l0,0c-5.14-6.69-3.86-16.37,2.83-21.51
		l30.73-23.58c6.69-5.14,16.37-3.86,21.51,2.83l0,0C307.89,207.88,306.62,217.56,299.92,222.7z"/>
</g>
<g id="LeftButtons" transform="translate(0,-42.333334)" inkscape:groupmode="layer" inkscape:label="Layer 3">
	
		<ellipse id="path5176-6" transform="matrix(1 -5.315138e-03 5.315138e-03 1 -0.9823 1.3797)" class="st7" cx="259.08" cy="185.5" rx="12.47" ry="12.47"/>
	<circle id="path5176-6-7" class="st8" cx="291.58" cy="209.84" r="12.47"/>
	
		<ellipse id="path5176" transform="matrix(1 -5.315180e-03 5.315180e-03 1 -1.1109 1.2163)" class="st7" cx="228.27" cy="209.61" rx="12.47" ry="12.47"/>
	<circle id="path5176-6-7-5" class="st8" cx="259.97" cy="234.49" r="12.47"/>
</g>
<g id="MidButtons" transform="translate(0,-42.333334)" inkscape:groupmode="layer" inkscape:label="Layer 8">
	<path class="st9" d="M143.68,217.31l-14.11,10.6c-1.91,1.44-4.65,1.05-6.08-0.86l0,0c-1.44-1.91-1.05-4.65,0.86-6.08l14.11-10.6
		c1.91-1.44,4.65-1.05,6.08,0.86h0C145.98,213.13,145.59,215.87,143.68,217.31z"/>
	<path class="st9" d="M179.42,217.31l-14.11,10.6c-1.91,1.44-4.65,1.05-6.08-0.86v0c-1.44-1.91-1.05-4.65,0.86-6.08l14.11-10.6
		c1.91-1.44,4.65-1.05,6.08,0.86h0C181.72,213.13,181.33,215.87,179.42,217.31z"/>
</g>
</svg>
